<svg xmlns="http://www.w3.org/2000/svg" width="137" height="128" viewBox="0 0 137 128" fill="none"><path d="M123.018 10.0346C125.779 3.771 129.63 5.82874 132.344 11.0566C137.563 21.1093 137.399 32.5514 135.478 40.1589C134.227 45.1118 131.155 47.7343 126.432 47.5643C122.813 47.4339 118.507 44.6609 114.567 40.0941C109.177 33.8462 103.909 24.1783 100.865 20.5558C100.736 20.4024 100.548 20.221 100.321 20.029C100.681 21.6842 101.318 23.614 101.96 25.7079C105.141 36.0913 110.885 48.9124 112.132 55.3613C112.464 57.0964 114.747 68.261 113.841 72.415C113.045 76.0633 110.79 77.826 108.571 78.4496C105.802 79.2274 102.937 78.7019 100.239 76.7922C96.1691 73.9104 92.2443 66.1969 90.6381 63.7426C84.2491 53.8845 78.6186 43.6895 72.3319 33.8571C69.7338 29.7936 67.0282 25.7889 64.0878 21.9086C63.4535 21.0718 61.0363 17.3674 58.2732 14.4369C58.081 14.2328 57.8571 14.0161 57.6197 13.8019C57.627 15.0202 57.9111 16.2966 58.2744 17.5765C59.7807 22.8798 63.1136 28.2022 64.9927 32.01C70.273 42.6837 76.2185 53.172 81.3554 63.9954C84.9047 71.4733 88.0868 79.1042 90.3705 87.092C91.8075 91.7375 95.1299 104.189 94.5892 113.138C94.1666 120.132 91.0989 125.136 85.9932 127.159C81.9005 128.783 77.1828 127.594 72.6089 124.473C66.2211 120.113 60.0868 111.232 57.9792 107.736C54.0939 101.116 50.5783 94.2073 47.5403 87.0253C43.2543 76.8928 39.7839 66.3495 34.8939 56.5944C32.9382 52.6938 30.828 48.8888 28.3972 45.27C27.1824 43.4821 23.1831 37.0522 18.6569 31.9642C17.4192 30.5731 15.3748 29.7025 14.0299 28.8307C13.9619 29.3907 13.9342 29.9826 13.8796 30.5583C13.5858 33.652 14.0223 36.9201 14.4416 39.2122C15.9796 47.5984 17.7416 54.6668 20.2036 61.5477C22.6134 68.2828 25.7248 74.8172 29.9048 82.2589L38.5065 100.249C44.1501 111.41 30.4782 118.15 25.0791 107.597L16.4759 89.9955C12.0928 81.5853 8.90086 74.205 6.44194 66.6476C3.94746 58.9807 2.17604 51.1457 0.727816 41.8536C0.0932773 37.8091 -0.353113 31.7224 0.756312 26.5042C1.80745 21.5614 4.1581 17.3437 7.99468 14.8574C11.4616 12.6109 16.2141 12.6418 21.2278 16.0328C28.4074 20.8888 37.6666 33.9438 39.7397 36.7955C44.1687 42.7303 47.8765 49.1368 51.2161 55.7871C55.6503 64.6171 59.6453 73.7669 63.4139 82.9503C65.8218 88.818 67.9727 94.7529 70.7372 100.37C71.5844 102.119 73.4234 105.572 75.8287 108.836C77.1996 110.696 78.6756 112.561 80.2939 113.894C80.8223 114.329 81.3158 114.758 81.8552 115.027C82.8428 115.518 82.8217 114.427 83.208 113.506C83.6561 111.387 83.72 108.876 83.5433 106.309C83.1005 99.8808 81.3968 93.1683 80.593 90.1605C78.4602 82.7355 75.5157 75.6298 72.1674 68.701C66.9836 57.9733 60.8742 47.6546 55.4889 37.1092C52.8939 32.0405 48.2292 24.5267 47.0023 17.509C46.2574 13.2489 46.6793 9.12735 48.6471 5.45107C51.0717 0.917991 54.5835 -0.00232095 58.4527 0.99339C60.4586 1.50969 62.7647 2.93065 64.9506 4.92874C68.6728 8.33117 72.2637 13.5247 73.1048 14.5976C76.299 18.672 79.2552 22.876 82.0815 27.1558C88.104 36.2754 93.526 45.7402 99.5473 54.9302C97.3153 47.0455 91.6074 34.0729 89.5318 24.7449C88.4276 19.7817 88.3599 15.5541 89.2889 12.7902C90.9313 7.90494 94.0368 6.31862 97.2925 6.16051C98.9945 6.07799 100.907 6.49722 102.77 7.45287C105.442 8.82402 108.121 11.3105 109.539 13.0675C112.144 16.3026 116.366 24.1586 120.902 30.3944C122.397 32.449 124.18 36.0589 125.42 35.6346C126.66 35.2102 123.287 18.4644 123.287 18.4644C123.079 17.4918 122.669 15.9662 122.513 14.5786C122.42 14.2235 122.357 13.8421 122.331 13.4348C122.261 12.3493 122.759 10.6204 123.018 10.0346Z" fill="#F26B2F"></path></svg>